<svg width="150" height="150" viewBox="0 0 150 150" fill="none" xmlns="http://www.w3.org/2000/svg">
<path d="M125 50H25V125C25 131.875 30.625 137.5 37.5 137.5H112.5C119.375 137.5 125 131.875 125 125V50Z" fill="#616161"/>
<path d="M112.5 12.5H37.5C30.625 12.5 25 18.125 25 25V53.125H125V25C125 18.125 119.375 12.5 112.5 12.5Z" fill="#424242"/>
<path d="M112.5 43.75H37.5C35.625 43.75 34.375 42.5 34.375 40.625V25C34.375 23.125 35.625 21.875 37.5 21.875H112.5C114.375 21.875 115.625 23.125 115.625 25V40.625C115.625 42.5 114.375 43.75 112.5 43.75Z" fill="#9CCC65"/>
<path d="M103.125 31.25H109.375V37.5H103.125V31.25ZM90.625 31.25H96.875V37.5H90.625V31.25Z" fill="#33691E"/>
<path d="M112.5 71.875H103.125C101.25 71.875 100 70.625 100 68.75V62.5C100 60.625 101.25 59.375 103.125 59.375H112.5C114.375 59.375 115.625 60.625 115.625 62.5V68.75C115.625 70.625 114.375 71.875 112.5 71.875Z" fill="#FF5252"/>
<path d="M46.875 71.875H37.5C35.625 71.875 34.375 70.625 34.375 68.75V62.5C34.375 60.625 35.625 59.375 37.5 59.375H46.875C48.75 59.375 50 60.625 50 62.5V68.75C50 70.625 48.75 71.875 46.875 71.875ZM68.75 71.875H59.375C57.5 71.875 56.25 70.625 56.25 68.75V62.5C56.25 60.625 57.5 59.375 59.375 59.375H68.75C70.625 59.375 71.875 60.625 71.875 62.5V68.75C71.875 70.625 70.625 71.875 68.75 71.875ZM90.625 71.875H81.25C79.375 71.875 78.125 70.625 78.125 68.75V62.5C78.125 60.625 79.375 59.375 81.25 59.375H90.625C92.5 59.375 93.75 60.625 93.75 62.5V68.75C93.75 70.625 92.5 71.875 90.625 71.875ZM46.875 90.625H37.5C35.625 90.625 34.375 89.375 34.375 87.5V81.25C34.375 79.375 35.625 78.125 37.5 78.125H46.875C48.75 78.125 50 79.375 50 81.25V87.5C50 89.375 48.75 90.625 46.875 90.625ZM68.75 90.625H59.375C57.5 90.625 56.25 89.375 56.25 87.5V81.25C56.25 79.375 57.5 78.125 59.375 78.125H68.75C70.625 78.125 71.875 79.375 71.875 81.25V87.5C71.875 89.375 70.625 90.625 68.75 90.625ZM90.625 90.625H81.25C79.375 90.625 78.125 89.375 78.125 87.5V81.25C78.125 79.375 79.375 78.125 81.25 78.125H90.625C92.5 78.125 93.75 79.375 93.75 81.25V87.5C93.75 89.375 92.5 90.625 90.625 90.625ZM46.875 109.375H37.5C35.625 109.375 34.375 108.125 34.375 106.25V100C34.375 98.125 35.625 96.875 37.5 96.875H46.875C48.75 96.875 50 98.125 50 100V106.25C50 108.125 48.75 109.375 46.875 109.375ZM68.75 109.375H59.375C57.5 109.375 56.25 108.125 56.25 106.25V100C56.25 98.125 57.5 96.875 59.375 96.875H68.75C70.625 96.875 71.875 98.125 71.875 100V106.25C71.875 108.125 70.625 109.375 68.75 109.375ZM90.625 109.375H81.25C79.375 109.375 78.125 108.125 78.125 106.25V100C78.125 98.125 79.375 96.875 81.25 96.875H90.625C92.5 96.875 93.75 98.125 93.75 100V106.25C93.75 108.125 92.5 109.375 90.625 109.375ZM46.875 128.125H37.5C35.625 128.125 34.375 126.875 34.375 125V118.75C34.375 116.875 35.625 115.625 37.5 115.625H46.875C48.75 115.625 50 116.875 50 118.75V125C50 126.875 48.75 128.125 46.875 128.125ZM68.75 128.125H59.375C57.5 128.125 56.25 126.875 56.25 125V118.75C56.25 116.875 57.5 115.625 59.375 115.625H68.75C70.625 115.625 71.875 116.875 71.875 118.75V125C71.875 126.875 70.625 128.125 68.75 128.125ZM90.625 128.125H81.25C79.375 128.125 78.125 126.875 78.125 125V118.75C78.125 116.875 79.375 115.625 81.25 115.625H90.625C92.5 115.625 93.75 116.875 93.75 118.75V125C93.75 126.875 92.5 128.125 90.625 128.125Z" fill="#E0E0E0"/>
<path d="M112.5 90.625H103.125C101.25 90.625 100 89.375 100 87.5V81.25C100 79.375 101.25 78.125 103.125 78.125H112.5C114.375 78.125 115.625 79.375 115.625 81.25V87.5C115.625 89.375 114.375 90.625 112.5 90.625ZM112.5 109.375H103.125C101.25 109.375 100 108.125 100 106.25V100C100 98.125 101.25 96.875 103.125 96.875H112.5C114.375 96.875 115.625 98.125 115.625 100V106.25C115.625 108.125 114.375 109.375 112.5 109.375ZM112.5 128.125H103.125C101.25 128.125 100 126.875 100 125V118.75C100 116.875 101.25 115.625 103.125 115.625H112.5C114.375 115.625 115.625 116.875 115.625 118.75V125C115.625 126.875 114.375 128.125 112.5 128.125Z" fill="#BDBDBD"/>
</svg>
